<?xml version="1.0" standalone="no"?><!DOCTYPE svg PUBLIC "-//W3C//DTD SVG 1.1//EN" "http://www.w3.org/Graphics/SVG/1.1/DTD/svg11.dtd"><svg t="1705414949762" class="icon" viewBox="0 0 1024 1024" version="1.1" xmlns="http://www.w3.org/2000/svg" p-id="28023" xmlns:xlink="http://www.w3.org/1999/xlink" width="64" height="64"><path d="M331.94 646.21L157.81 178.75l-60.16-6.35c-20.64-2.17-35.61-20.65-33.44-41.29 2.17-20.64 20.65-35.61 41.29-33.44l60.16 6.35c28.14 3.03 52.15 21.69 62.03 48.2L401.82 620.8c6.11 19.71-4.91 40.65-24.62 46.76-18.13 5.62-37.59-3.24-45.25-20.6l-0.01-0.75z m625.52-33.26c-7.14-19.36-28.63-29.27-47.99-22.12-0.07 0.02-0.14 0.05-0.21 0.08L518.4 736.26c-43.18-44.37-114.15-45.34-158.52-2.16-44.37 43.18-45.33 114.15-2.16 158.52 43.18 44.37 114.15 45.34 158.52 2.15a112.117 112.117 0 0 0 33.92-80.8v-9.34l386.37-143.49c19.01-7.61 28.34-29.1 20.93-48.19z m-511.18-37.37c21.49 58.06 85.98 87.71 144.04 66.21 0.06-0.02 0.13-0.05 0.19-0.07l244.38-90.8c58.06-21.49 87.7-85.99 66.21-144.05-0.02-0.06-0.05-0.12-0.07-0.19L826.3 207.52c-21.49-58.06-85.98-87.71-144.04-66.21-0.06 0.02-0.13 0.05-0.19 0.07l-244.38 90.8c-58.06 21.49-87.7 85.99-66.21 144.05 0.02 0.06 0.05 0.12 0.07 0.19l74.73 199.16z" fill="#ffffff" p-id="28024"></path></svg>