<?xml version="1.0" standalone="no"?><!DOCTYPE svg PUBLIC "-//W3C//DTD SVG 1.1//EN" "http://www.w3.org/Graphics/SVG/1.1/DTD/svg11.dtd"><svg t="1705415212181" class="icon" viewBox="0 0 1024 1024" version="1.1" xmlns="http://www.w3.org/2000/svg" p-id="30133" xmlns:xlink="http://www.w3.org/1999/xlink" width="64" height="64"><path d="M153.6 179.2A76.8 76.8 0 0 1 230.4 102.4h358.4A76.8 76.8 0 0 1 665.6 179.2v91.8016l167.3216 167.3216A128 128 0 0 1 870.4 528.7936V896a25.6 25.6 0 0 1-51.2 0v-367.2064a76.8 76.8 0 0 0-22.528-54.272L665.6 343.4496v157.952l43.7248 43.6736a25.6 25.6 0 0 1-36.2496 36.1984l-153.6-153.6c-21.6064-21.6064-33.6384-20.6848-38.912-19.3536-8.8576 2.1504-16.6912 9.216-27.648 19.7632-5.12 4.9152-7.2704 9.728-6.2464 16.896 1.3312 8.96 8.3456 24.9856 32.256 48.896l62.1056 62.1056 14.6432 14.6944A25.6 25.6 0 0 1 563.2 588.8c0 39.6288 0.3072 79.5136 11.264 109.6192 5.2224 14.3872 12.3392 24.8832 21.7088 31.8976 9.1648 6.8608 22.6816 12.0832 43.8272 12.0832a25.6 25.6 0 0 1 25.6 25.6v76.8a76.8 76.8 0 0 1-76.8 76.8h-358.4A76.8 76.8 0 0 1 153.6 844.8v-665.6z m256 204.8a128 128 0 1 0 97.6896 210.688l-2.56-2.56-62.0544-62.0544c-27.2896-27.2896-43.008-52.9408-46.6432-77.6192a68.7104 68.7104 0 0 1 21.504-61.3888l1.7408-1.6896 4.8128-4.608A129.536 129.536 0 0 0 409.6 384z m102.4 460.8v25.6h51.2v-25.6a25.6 25.6 0 0 1 25.6-25.6h25.6v-27.648a110.7968 110.7968 0 0 1-48.64-20.0192A76.8 76.8 0 0 0 512 844.8zM204.8 256h25.6A76.8 76.8 0 0 0 307.2 179.2V153.6H256v25.6a25.6 25.6 0 0 1-25.6 25.6H204.8v51.2z m307.2-76.8A76.8 76.8 0 0 0 588.8 256h25.6V204.8h-25.6a25.6 25.6 0 0 1-25.6-25.6V153.6h-51.2v25.6z m-204.8 665.6A76.8 76.8 0 0 0 230.4 768H204.8v51.2h25.6a25.6 25.6 0 0 1 25.6 25.6v25.6h51.2v-25.6z" p-id="30134" fill="#ffffff"></path></svg>