<?xml version="1.0" standalone="no"?><!DOCTYPE svg PUBLIC "-//W3C//DTD SVG 1.1//EN" "http://www.w3.org/Graphics/SVG/1.1/DTD/svg11.dtd"><svg t="1705412486793" class="icon" viewBox="0 0 1024 1024" version="1.1" xmlns="http://www.w3.org/2000/svg" p-id="14325" xmlns:xlink="http://www.w3.org/1999/xlink" width="64" height="64"><path d="M950.72 240h-109.44A57.28 57.28 0 0 0 784 288H240a57.28 57.28 0 0 0-56.64-48H73.28A56.96 56.96 0 0 0 16 296.32v384A56.96 56.96 0 0 0 73.28 736h109.44a57.28 57.28 0 0 0 44.96-21.6l71.52 71.52A102.72 102.72 0 0 0 372 816h292.96a103.84 103.84 0 0 0 101.28-83.68 156.8 156.8 0 0 0 29.28-18.72 57.12 57.12 0 0 0 45.76 22.4h109.44A56.96 56.96 0 0 0 1008 679.68v-384A56.96 56.96 0 0 0 950.72 240zM144 704v-112a16 16 0 0 1 32 0v112z m571.04 59.2a69.76 69.76 0 0 1-50.08 20.8H372a70.08 70.08 0 0 1-50.08-20.8L240 681.44V320h114.72a48 48 0 0 0-1.76 6.4 24.32 24.32 0 0 0 0 3.36A40.96 40.96 0 0 0 352 336a112 112 0 0 0 112 112h128.96a114.72 114.72 0 0 0 5.12 22.72 123.04 123.04 0 0 0 32 52l96 152.64a69.92 69.92 0 0 1 9.92 37.6v5.28a9.12 9.12 0 0 1 0 1.76 69.12 69.12 0 0 1-20.96 43.2z m51.36-68.16c0-2.4-0.96-4.8-1.6-7.2s-0.96-3.68-1.6-5.6a24.32 24.32 0 0 0-0.96-3.2l-1.92-4.8a52.8 52.8 0 0 0-3.04-6.88 74.88 74.88 0 0 0-4.8-8.64l-64-102.4A130.24 130.24 0 0 0 720 560a16 16 0 0 0 0-32 94.88 94.88 0 0 1-66.4-26.88 96 96 0 0 1-24.48-39.84A88.32 88.32 0 0 1 624 432a16 16 0 0 0-16-16h-144a80 80 0 0 1-80-80 16 16 0 0 1 4.96-11.36A14.88 14.88 0 0 1 400 320h384v361.28a148.32 148.32 0 0 1-17.6 13.76zM848 704v-112a16 16 0 0 1 32 0v112z" p-id="14326" fill="#ffffff"></path></svg>