<?xml version="1.0" standalone="no"?><!DOCTYPE svg PUBLIC "-//W3C//DTD SVG 1.1//EN" "http://www.w3.org/Graphics/SVG/1.1/DTD/svg11.dtd"><svg t="1705415362782" class="icon" viewBox="0 0 1024 1024" version="1.1" xmlns="http://www.w3.org/2000/svg" p-id="33014" xmlns:xlink="http://www.w3.org/1999/xlink" width="64" height="64"><path d="M512 531.911111m-327.111111 0a327.111111 327.111111 0 1 0 654.222222 0 327.111111 327.111111 0 1 0-654.222222 0Z" fill="#ffffff" p-id="33015"></path><path d="M512 531.911111m-284.444444 0a284.444444 284.444444 0 1 0 568.888888 0 284.444444 284.444444 0 1 0-568.888888 0Z" fill="#ffffff" p-id="33016"></path><path d="M426.666667 460.8h5.688889c17.066667-2.844444 25.6-8.533333 31.288888-14.222222 5.688889 2.844444 11.377778 5.688889 19.911112 5.688889h2.844444c8.533333 0 14.222222-2.844444 17.066667-5.688889 5.688889 5.688889 14.222222 14.222222 25.6 17.066666 5.688889 0 8.533333 2.844444 11.377777 2.844445 8.533333 0 14.222222-2.844444 19.911112-5.688889 5.688889 5.688889 14.222222 14.222222 25.6 14.222222h8.533333c22.755556 0 39.822222-11.377778 45.511111-31.288889 5.688889-25.6 0-45.511111-22.755556-56.888889-5.688889-2.844444-14.222222-5.688889-19.911111-5.688888h-5.688889c-8.533333-17.066667-22.755556-28.444444-39.822222-31.288889h-5.688889c-17.066667 0-28.444444 8.533333-36.977777 17.066666-5.688889-5.688889-14.222222-8.533333-25.6-8.533333s-17.066667 2.844444-22.755556 8.533333c-8.533333-8.533333-19.911111-17.066667-36.977778-17.066666h-8.533333c-31.288889 5.688889-48.355556 28.444444-45.511111 62.577777 5.688889 25.6 28.444444 48.355556 56.888889 48.355556z m275.911111 241.777778c0-5.688889-5.688889-11.377778-11.377778-11.377778h-11.377778v-167.822222c0-17.066667-14.222222-28.444444-28.444444-28.444445h-48.355556c-17.066667 0-28.444444 14.222222-28.444444 28.444445v14.222222c0 2.844444-2.844444 5.688889-5.688889 5.688889h-128c-17.066667 0-28.444444 14.222222-28.444445 28.444444v8.533334c0 2.844444-2.844444 5.688889-5.688888 5.688889h-31.288889c-17.066667 0-28.444444 14.222222-28.444445 28.444444v76.8h-11.377778c-2.844444 0-2.844444 0-5.688888 2.844444-5.688889 0-8.533333 5.688889-8.533334 11.377778s5.688889 11.377778 11.377778 11.377778h358.4c5.688889-2.844444 11.377778-5.688889 11.377778-14.222222z m-159.288889-31.288889c0 5.688889-5.688889 11.377778-11.377778 11.377778s-11.377778-5.688889-11.377778-11.377778v-62.577778c0-5.688889 5.688889-11.377778 11.377778-11.377778s11.377778 5.688889 11.377778 11.377778v62.577778z m48.355555 0c0 5.688889-5.688889 11.377778-11.377777 11.377778s-11.377778-5.688889-11.377778-11.377778v-62.577778c0-5.688889 5.688889-11.377778 11.377778-11.377778s11.377778 5.688889 11.377777 11.377778v62.577778z m48.355556 0c0 5.688889-5.688889 11.377778-11.377778 11.377778s-11.377778-5.688889-11.377778-11.377778v-62.577778c0-5.688889 5.688889-11.377778 11.377778-11.377778s11.377778 5.688889 11.377778 11.377778v62.577778z" fill="#ffffff" p-id="33017"></path></svg>