<?xml version="1.0" standalone="no"?><!DOCTYPE svg PUBLIC "-//W3C//DTD SVG 1.1//EN" "http://www.w3.org/Graphics/SVG/1.1/DTD/svg11.dtd"><svg t="1705415599194" class="icon" viewBox="0 0 1024 1024" version="1.1" xmlns="http://www.w3.org/2000/svg" p-id="41497" xmlns:xlink="http://www.w3.org/1999/xlink" width="64" height="64"><path d="M246.186667 305.066667L307.2 203.946667l43.946667-72.96c16.64-27.733333 56.746667-27.733333 73.386666 0l63.146667 104.96-52.48 87.893333-42.666667 69.12-146.346666-87.893333z m680.533333 248.32l-68.266667-113.493334-147.626666 85.333334L805.12 682.666667H853.333333a85.333333 85.333333 0 0 0 85.333334-85.333334c0-15.36-4.266667-30.293333-11.946667-43.946666zM682.666667 896h64a85.333333 85.333333 0 0 0 76.373333-47.36L884.906667 725.333333H682.666667v-85.333333l-170.666667 170.666667 170.666667 170.666666v-85.333333z m-256-170.666667H243.2l-35.84 60.16c-12.8 21.333333-13.653333 47.786667-2.56 70.4 11.946667 24.32 37.12 40.106667 64.853333 40.106667H426.666667v-170.666667z m-165.546667-113.066666l73.813333 44.373333L276.48 422.4 42.666667 480.853333l72.533333 43.52-17.493333 29.44c-14.933333 25.173333-16.213333 55.893333-2.986667 81.92l69.546667 139.093334 96.853333-162.56z m465.066667-392.96l-55.466667-92.586667C654.933333 101.12 627.2 85.333333 597.333333 85.333333h-150.613333l133.12 221.866667-73.386667 43.946667 234.24 58.453333 58.453334-234.24-72.96 43.946667z" fill="#ffffff" p-id="41498"></path></svg>