<?xml version="1.0" standalone="no"?><!DOCTYPE svg PUBLIC "-//W3C//DTD SVG 1.1//EN" "http://www.w3.org/Graphics/SVG/1.1/DTD/svg11.dtd"><svg t="1705412339311" class="icon" viewBox="0 0 1024 1024" version="1.1" xmlns="http://www.w3.org/2000/svg" p-id="12293" xmlns:xlink="http://www.w3.org/1999/xlink" width="64" height="64"><path d="M284.48 736a128 128 0 1 0 128 128 128 128 0 0 0-128-128zM640 192V128a64 64 0 0 0-64-64H96a64 64 0 0 0-64 64v576a64 64 0 0 0 50.88 64 224 224 0 0 1 404.16 0h10.88a224 224 0 0 1 202.56-128 247.04 247.04 0 0 1 201.92 128h21.12A68.48 68.48 0 0 0 992 702.4V544A354.88 354.88 0 0 0 640 192z m0 352V288a264.96 264.96 0 0 1 252.48 256z m60.48 192a128 128 0 1 0 128 128 128 128 0 0 0-128-128z" fill="#ffffff" p-id="12294"></path></svg>