<?xml version="1.0" standalone="no"?><!DOCTYPE svg PUBLIC "-//W3C//DTD SVG 1.1//EN" "http://www.w3.org/Graphics/SVG/1.1/DTD/svg11.dtd"><svg t="1705414154850" class="icon" viewBox="0 0 1253 1024" version="1.1" xmlns="http://www.w3.org/2000/svg" p-id="16267" xmlns:xlink="http://www.w3.org/1999/xlink" width="78.3125" height="64"><path d="M548.320653 523.222204c5.287184-3.970612 13.20751-5.287184 18.494694-1.316571 117.592816 75.295347 175.751837 223.294694 177.04751 395.05502 0 117.592816-743.862857 117.592816-743.862857 0 0-170.443755 58.138122-319.738776 175.730939-395.05502 5.287184-2.654041 13.20751-2.654041 18.494694 1.316571 48.901224 36.989388 110.968163 58.138122 177.04751 58.138123 66.058449 0 126.850612-21.148735 177.04751-58.138123zM1128.364408 0C1197.035102 0 1253.877551 55.484082 1253.877551 124.196571V401.658776c0 68.71249-56.821551 125.534041-125.513143 125.53404h-171.781224l-116.255347 106.997551c-10.574367 9.257796-23.781878 14.54498-36.989388 14.54498-10.574367 0-19.832163-2.633143-29.069061-7.941225-21.148735-13.186612-30.406531-38.305959-23.802776-62.066938l15.882449-55.50498c-54.188408-13.20751-95.148408-63.425306-95.148408-121.563428V125.513143C671.200653 56.842449 728.022204 0 796.713796 0z m0 46.247184H795.376327c-42.276571 0-77.949388 34.356245-77.949388 77.949387V401.658776c0 42.276571 34.356245 77.949388 77.949388 77.949387 6.603755 0 14.54498 3.970612 18.494693 9.257796 3.970612 6.603755 6.603755 14.54498 3.970613 21.148735L795.376327 590.576327c-1.316571 5.287184 1.316571 7.941224 3.970612 9.257795 2.633143 1.316571 6.603755 2.633143 10.574367-1.316571l122.88-113.643102c3.970612-3.970612 10.553469-6.603755 15.840653-6.603755h181.018123c42.276571 0 77.949388-34.356245 77.949387-77.949388h-1.316571V124.196571c0-42.276571-34.356245-77.949388-77.949388-77.949387z m-757.091265 11.890938c122.587429 0 221.978122 99.369796 221.978122 221.978123 0 122.587429-99.390694 221.957224-221.978122 221.957224S149.29502 402.703673 149.29502 280.116245c0-122.608327 99.390694-221.978122 221.978123-221.978123zM889.208163 109.67249c13.20751 0 23.781878 11.890939 21.148735 25.077551l-7.941225 43.614041a28.546612 28.546612 0 0 1-33.018775 23.781877l-17.178122-2.633143c-3.970612 0-7.941224 1.316571-9.257796 3.970613a241.580408 241.580408 0 0 0 0 114.938775c1.316571 3.970612 5.287184 6.603755 9.257796 5.287184l17.178122-2.633143a28.546612 28.546612 0 0 1 33.018775 23.781877l7.941225 43.593143c2.633143 13.20751-7.941224 25.098449-21.148735 25.098449-51.534367 0-97.781551-33.018776-97.781551-151.928163 0-118.909388 47.584653-151.949061 97.802449-151.949061z m223.294694 223.294694c13.20751 0 23.781878 10.553469 23.781878 23.781877 0 13.20751-10.574367 23.781878-23.781878 23.781878h-136.08751a23.677388 23.677388 0 0 1-23.781878-23.781878c0-13.228408 10.574367-23.781878 23.781878-23.781877z m0-93.831837c13.20751 0 23.781878 10.574367 23.781878 23.802775 0 13.20751-10.574367 23.781878-23.781878 23.781878h-136.08751a23.677388 23.677388 0 0 1-23.781878-23.781878c0-13.228408 10.574367-23.781878 23.781878-23.781877z m0-93.790041c13.20751 0 23.781878 10.553469 23.781878 23.781878 0 13.20751-10.574367 23.781878-23.781878 23.781877h-136.08751a23.677388 23.677388 0 0 1-23.781878-23.781877c0-13.228408 10.574367-23.781878 23.781878-23.781878z" fill="#ffffff" p-id="16268"></path></svg>